{
	"asset":{
		"version":"2.0",
		"generator":"Houdini GLTF 2.0 Exporter"
	},
	"accessors":[
		{
			"bufferView":0,
			"componentType":5123,
			"count":408,
			"type":"SCALAR",
			"min":[0
			],
			"max":[87
			]
		},
		{
			"bufferView":1,
			"componentType":5126,
			"count":88,
			"type":"VEC3",
			"min":[-8.97705364,0,-9.00426292
			],
			"max":[9.01333809,30,9.00426292
			]
		},
		{
			"bufferView":2,
			"componentType":5126,
			"count":88,
			"type":"VEC3",
			"min":[-0.926452577,-0.524164855,-0.929260671
			],
			"max":[0.930197358,0.367060035,0.929260731
			]
		},
		{
			"bufferView":3,
			"componentType":5126,
			"count":88,
			"type":"VEC4",
			"min":[0,-8.98972274e-08,-1,1
			],
			"max":[0.998993099,6.68465745e-08,0.044864662,1
			]
		},
		{
			"bufferView":4,
			"componentType":5126,
			"count":88,
			"type":"VEC2",
			"min":[0.00747036934,0
			],
			"max":[1.2357738,1
			]
		}
	],
	"buffers":[
		{
			"uri":"tea_data.bin",
			"byteLength":5040,
			"name":"main_buffer"
		}
	],
	"bufferViews":[
		{
			"buffer":0,
			"byteLength":816,
			"target":34963
		},
		{
			"buffer":0,
			"byteOffset":816,
			"byteLength":1056,
			"target":34962
		},
		{
			"buffer":0,
			"byteOffset":1872,
			"byteLength":1056,
			"target":34962
		},
		{
			"buffer":0,
			"byteOffset":2928,
			"byteLength":1408,
			"target":34962
		},
		{
			"buffer":0,
			"byteOffset":4336,
			"byteLength":704,
			"target":34962
		}
	],
	"nodes":[
		{
			"name":"cup",
			"mesh":0
		}
	],
	"meshes":[
		{
			"primitives":[
				{
					"attributes":{
						"TEXCOORD_0":4,
						"TANGENT":3,
						"POSITION":1,
						"NORMAL":2
					},
					"indices":0
				}
			],
			"name":"uvproject2"
		}
	],
	"scenes":[
		{
			"nodes":[0
			]
		}
	],
	"scene":0
}
